<svg xmlns="http://www.w3.org/2000/svg" enable-background="new 0 0 48 48" viewBox="0 0 48 48"><path d="M43,2.5h-7H12H5C3.62,2.5,2.5,3.62,2.5,5v7v24v7c0,1.38,1.12,2.5,2.5,2.5h7h24h7c1.38,0,2.5-1.12,2.5-2.5v-7V12V5
		C45.5,3.62,44.38,2.5,43,2.5z M10.5,42.5h-5V36V12V5.5h5V42.5z M34.5,42.5h-21v-5h21V42.5z M34.5,34.5h-21v-21h21V34.5z M34.5,10.5
		h-21v-5h21V10.5z M42.5,12v24v6.5h-5v-37h5V12z"/><path d="M17.21,32.28c0.24,0.15,0.51,0.22,0.79,0.22c0.23,0,0.46-0.05,0.67-0.16l14-7c0.51-0.25,0.83-0.77,0.83-1.34
		s-0.32-1.09-0.83-1.34l-14-7c-0.46-0.23-1.02-0.21-1.46,0.07C16.77,16,16.5,16.48,16.5,17v14C16.5,31.52,16.77,32,17.21,32.28z
		 M19.5,19.43L28.65,24l-9.15,4.57V19.43z"/></svg>